<?xml version="1.0" encoding="utf-8"?>
<!-- Generator: Adobe Illustrator 24.3.0, SVG Export Plug-In . SVG Version: 6.00 Build 0)  -->
<svg version="1.1" id="Layer_1" xmlns="http://www.w3.org/2000/svg" xmlns:xlink="http://www.w3.org/1999/xlink" x="0px" y="0px"
	 viewBox="0 0 800 800" style="enable-background:new 0 0 800 800;" xml:space="preserve">
<style type="text/css">
	.st0{fill-rule:evenodd;clip-rule:evenodd;fill:#0F0F0F;}
</style>
<path class="st0" d="M159.8,213.5l0-0.2c0.3-9.6,2.9-19.5,7.2-28.1c3.4-6.8,8.1-12.9,14.7-17.2c6.4-4.3,16.1-8,31.5-8
	c15.3,0,25.1,3.8,31.5,8c8.2,5.5,13.7,13.9,17,22.5c-15.9,4.2-29.1,11.5-39.8,21.1c-16.6,14.8-25.2,33.1-29.7,47.6
	c-5.1,16.6-0.5,32.7,9.5,44c9.6,10.8,23.7,16.8,38.2,16.8h106.7c14.5,0,28.6-6,38.2-16.8c10-11.3,14.6-27.4,9.5-44
	c-4.5-14.5-13.1-32.9-29.7-47.6c-12.4-11.1-28.3-19.2-47.8-22.9c-1.8-8.1-4.8-17.6-9.7-27.3c-6.6-13.2-16.9-27.1-32.8-37.8
	c-16.1-10.7-36.4-17-61-17c-24.7,0-44.9,6.2-61,17c-15.9,10.6-26.2,24.6-32.8,37.8c-6.5,13.1-9.7,25.8-11.2,35
	c-0.9,5.5-1.6,11.2-1.6,16.8l0,213.5c0,2.4,0.1,4.8,0.2,9.1c0.2,5.5,0.7,13.3,1.6,22.6c1.8,18.5,5.3,43.5,12.6,69
	c7.2,25.1,18.5,52.6,37.1,74.2c19.2,22.4,46.2,38.5,81.9,38.5v26.7c0,14.7,11.9,26.7,26.7,26.7c14.7,0,26.7-11.9,26.7-26.7V640
	h213.3v26.7c0,14.7,11.9,26.7,26.7,26.7c14.7,0,26.7-11.9,26.7-26.7V640c55.7,0,88-38.2,105.6-76.2c17.5-37.8,23.8-81.5,26.2-108.2
	c2.8-31.6-22.8-55.6-51.8-55.6h-480V213.5z M161.4,453.3c1.6,16.5,4.7,38.1,10.8,59.3c6.2,21.5,14.8,40.8,26.3,54.1
	c10.8,12.6,23.8,19.9,41.4,19.9h320c25.7,0,43.7-16.1,57.2-45.3c13.2-28.4,18.9-63.4,21.2-88.1H161.4z M329,251.4
	c4.8,4.3,8.4,9.6,11,15.3h-93.7c2.7-5.7,6.3-11,11-15.3c6.5-5.8,17.1-11.4,35.8-11.4S322.5,245.6,329,251.4z"/>
</svg>
